<?xml version="1.0" encoding="UTF-8" standalone="no" ?>
<!DOCTYPE svg PUBLIC "-//W3C//DTD SVG 1.1//EN" "http://www.w3.org/Graphics/SVG/1.1/DTD/svg11.dtd">
<svg xmlns="http://www.w3.org/2000/svg" xmlns:xlink="http://www.w3.org/1999/xlink" version="1.1" width="512"
     height="512" viewBox="0 0 500 500" xml:space="preserve">
<desc>Created with Fabric.js 4.6.0</desc>
    <defs>
</defs>
    <g transform="matrix(-1 -1 -0.34 0.34 245.68 307.6)" id="p2k1p3icS1MbomFwtAs9O">
<path style="stroke: rgb(244,39,157); stroke-width: 0; stroke-dasharray: none; stroke-linecap: butt; stroke-dashoffset: 0; stroke-linejoin: miter; stroke-miterlimit: 4; fill: rgb(50,149,200); fill-rule: nonzero; opacity: 1;"
      vector-effect="non-scaling-stroke" transform=" translate(0, 0)"
      d="M -130.07884 -87.97925 C -128.09032000000002 -90.76941 -125.91451 -92.21754 -123.71079000000002 -92.21754 L 151.47187999999994 -92.21754 L 151.47187999999994 -92.21754 C 155.29914999999994 -92.21754 158.77395999999993 -85.65294 160.36153999999993 -75.42320000000001 C 161.94912999999994 -65.19346000000002 161.35708999999994 -53.18274000000001 158.84690999999992 -44.695960000000014 L 124.51332999999993 71.38422999999999 L 124.51332999999993 71.38422999999999 C 119.85963999999993 87.11813999999998 112.77774999999993 94.71283999999999 105.76773999999992 91.48720999999999 L -158.7484600000001 -30.22885000000001 L -158.7484600000001 -30.22885000000001 C -160.0256800000001 -30.81656000000001 -161.0238000000001 -33.77879000000001 -161.2107500000001 -37.536460000000005 C -161.3977000000001 -41.294140000000006 -160.7299100000001 -44.97155000000001 -159.5633700000001 -46.60837000000001 z"
      stroke-linecap="round"/>
</g>
    <g transform="matrix(-1.25 1.25 -0.34 -0.34 239.44 193.72)" id="ChehTfR2CfsG6XtIPmsNb">
<path style="stroke: rgb(244,39,157); stroke-width: 0; stroke-dasharray: none; stroke-linecap: butt; stroke-dashoffset: 0; stroke-linejoin: miter; stroke-miterlimit: 4; fill: rgb(50,149,200); fill-rule: nonzero; opacity: 1;"
      vector-effect="non-scaling-stroke" transform=" translate(0, 0)"
      d="M -127.95284 -23.7306 C -129.22181 -24.22503 -130.18486 -28.15511 -130.18546999999998 -32.841629999999995 C -130.18607999999998 -37.52815 -129.22403999999997 -41.4616 -127.95519999999998 -41.960469999999994 L -88.79489999999998 -57.35708999999999 L 125.64352000000002 -35.19010999999999 L 125.64352000000002 -35.19010999999999 C 127.86608000000003 -34.96035999999999 129.73679 -29.01113999999999 130.11646000000002 -20.96531999999999 C 130.49612000000002 -12.91949999999999 129.27958 -5.005399999999991 127.20768000000001 -2.0424299999999924 L 89.67722 51.62875000000001 L 89.67722 51.62875000000001 C 86.27003 56.50127000000001 82.59454000000001 58.304710000000014 78.95855 56.88802000000001 z"
      stroke-linecap="round"/>
</g>
</svg>