<?xml version="1.0" encoding="iso-8859-1"?>
<!-- Generator: Adobe Illustrator 17.1.0, SVG Export Plug-In . SVG Version: 6.00 Build 0)  -->
<!DOCTYPE svg PUBLIC "-//W3C//DTD SVG 1.1//EN" "http://www.w3.org/Graphics/SVG/1.1/DTD/svg11.dtd">
<svg version="1.1" id="Capa_1" xmlns="http://www.w3.org/2000/svg" xmlns:xlink="http://www.w3.org/1999/xlink" x="0px"
	 y="0px"
	 viewBox="0 0 325.214 325.214" style="enable-background:new 0 0 325.214 325.214;" xml:space="preserve">
<g>
	<path d="M288.777,93.565c-15.313-23.641-36.837-42.476-62.243-54.472c-1.616-0.763-3.109-1.134-4.564-1.134
		c-1.969,0-8.392,0.833-8.392,11.541v17.75c0,8.998,5.479,13.113,7.159,14.16c32.613,20.33,52.083,55.317,52.083,93.59
		c0,60.772-49.442,110.214-110.214,110.214S52.393,235.772,52.393,175c0-38.872,19.942-74.144,53.346-94.353
		c4.475-2.707,6.839-7.426,6.839-13.647V49c0-7.959-5.077-10.783-9.424-10.783c-1.714,0-3.542,0.422-5.144,1.188
		C72.781,51.471,51.42,70.305,36.237,93.872C20.638,118.084,12.393,146.137,12.393,175c0,82.828,67.386,150.214,150.214,150.214
		S312.821,257.828,312.821,175C312.821,146.008,304.507,117.848,288.777,93.565z"/>
	<path d="M152.579,117h21c5.514,0,10-4.486,10-10V10c0-5.514-4.486-10-10-10h-21c-5.514,0-10,4.486-10,10v97
		C142.579,112.514,147.064,117,152.579,117z"/>
</g>
	<g>
</g>
	<g>
</g>
	<g>
</g>
	<g>
</g>
	<g>
</g>
	<g>
</g>
	<g>
</g>
	<g>
</g>
	<g>
</g>
	<g>
</g>
	<g>
</g>
	<g>
</g>
	<g>
</g>
	<g>
</g>
	<g>
</g>
</svg>